<?xml version="1.0" standalone="no"?>
<!DOCTYPE svg PUBLIC "-//W3C//DTD SVG 20010904//EN"
 "http://www.w3.org/TR/2001/REC-SVG-20010904/DTD/svg10.dtd">
<svg version="1.0" xmlns="http://www.w3.org/2000/svg"
 width="784.000000pt" height="784.000000pt" viewBox="0 0 784.000000 784.000000"
 preserveAspectRatio="xMidYMid meet">
<metadata>
Created by potrace 1.14, written by Peter Selinger 2001-2017
</metadata>
<g transform="translate(0.000000,784.000000) scale(0.100000,-0.100000)"
fill="#000000" stroke="none">
<path d="M4297 7204 c-112 -27 -253 -112 -317 -192 l-31 -39 -162 -6 c-174 -6
-392 -39 -555 -82 -62 -16 -120 -25 -171 -25 -243 0 -914 -278 -1188 -493 -98
-76 -247 -147 -308 -147 -17 0 -57 -13 -90 -30 -33 -16 -71 -30 -85 -30 -38 0
-139 -52 -195 -99 -95 -80 -129 -116 -186 -203 -78 -119 -122 -233 -124 -319
-1 -65 -2 -68 -85 -195 -200 -307 -283 -461 -346 -644 -104 -298 -124 -363
-132 -436 -5 -43 -24 -143 -41 -221 -49 -223 -70 -370 -76 -536 -6 -135 -4
-161 14 -232 13 -50 32 -93 50 -116 l30 -36 -20 -73 c-25 -95 -42 -235 -33
-274 3 -17 14 -42 24 -56 22 -33 58 -192 49 -216 -12 -31 -10 -105 6 -172 16
-66 105 -253 157 -331 71 -104 147 -197 172 -210 14 -8 37 -34 51 -57 34 -57
173 -197 265 -265 159 -119 300 -193 552 -293 92 -36 170 -66 174 -66 3 0 19
-11 34 -23 82 -70 497 -155 1000 -206 182 -19 266 -24 785 -51 110 -6 286 -15
390 -21 189 -10 763 -6 1047 7 108 5 152 3 162 -5 10 -9 25 -9 53 -2 34 8 157
20 393 36 106 8 270 55 490 142 404 160 717 360 864 551 85 112 106 145 106
169 0 14 16 45 38 72 68 82 145 194 179 259 40 76 45 145 13 184 -19 25 -19
26 -1 114 11 49 25 125 31 169 9 59 20 91 41 122 16 23 29 45 29 50 0 5 17 32
38 60 21 28 44 70 51 94 11 39 18 47 56 62 118 49 177 203 178 467 1 166 -38
271 -127 346 l-43 36 -6 106 c-8 175 -72 448 -161 690 -79 219 -125 319 -216
472 -44 74 -80 140 -80 146 0 7 12 20 28 30 81 53 110 150 76 265 -80 275
-423 619 -617 619 -25 0 -37 7 -55 34 -13 19 -62 73 -110 120 -244 242 -626
457 -1072 605 -76 25 -311 81 -342 81 -4 0 -15 17 -25 38 -25 52 -92 116 -155
148 -29 14 -78 41 -108 59 -106 64 -233 81 -363 49z m-388 -519 c70 -169 375
-282 591 -219 30 9 93 19 140 24 134 12 196 47 234 131 l23 48 119 -48 c486
-197 795 -369 1099 -616 124 -100 128 -106 114 -141 -6 -16 -15 -54 -20 -85
-20 -121 47 -327 140 -431 49 -55 129 -98 184 -98 32 0 44 -6 74 -39 43 -49
101 -73 164 -70 27 2 54 -3 63 -10 8 -7 18 -38 22 -69 4 -41 27 -99 76 -202
75 -155 171 -389 220 -535 27 -81 31 -109 38 -270 5 -99 12 -207 15 -240 l7
-60 -56 -24 c-175 -74 -275 -347 -202 -552 13 -36 38 -88 56 -114 51 -74 155
-180 202 -205 l43 -22 -6 -62 c-4 -33 -16 -86 -27 -116 -37 -103 -35 -172 3
-140 9 7 25 30 35 49 18 35 19 35 20 10 0 -56 -58 -339 -70 -339 -5 0 -6 40
-3 89 4 61 2 90 -6 95 -8 5 -11 -18 -11 -83 l0 -90 -74 -98 c-154 -204 -416
-483 -454 -483 -8 0 -27 -9 -43 -20 -15 -12 -95 -50 -176 -86 -81 -36 -224
-103 -318 -149 -186 -91 -387 -173 -562 -229 -124 -40 -127 -40 -118 -26 11
18 -71 10 -252 -24 -495 -96 -828 -121 -1593 -120 -346 0 -469 4 -600 18 -279
30 -489 64 -555 90 -68 28 -106 37 -285 71 -232 43 -318 84 -796 382 l-311
193 -154 157 c-85 87 -175 187 -199 223 -24 36 -64 92 -90 125 -59 75 -78 112
-147 289 -52 132 -56 151 -72 296 -10 85 -15 177 -13 203 l4 48 32 -53 c21
-36 45 -60 76 -77 25 -14 118 -79 208 -146 136 -102 179 -128 270 -165 59 -24
232 -99 384 -167 292 -129 332 -143 413 -142 l50 1 -43 20 c-24 10 -71 24
-105 29 -86 13 -144 33 -280 96 -278 128 -516 306 -652 488 -21 28 -73 88
-116 134 -70 73 -83 83 -108 79 l-29 -4 -16 105 c-9 58 -21 134 -27 169 -20
114 24 364 147 837 113 432 126 463 351 811 l106 164 71 0 c123 0 238 42 357
131 76 56 192 176 216 224 9 16 29 47 45 67 62 79 108 223 108 340 0 61 2 68
28 86 15 10 60 31 100 47 40 15 146 64 235 109 90 44 187 92 217 105 30 13 95
41 143 63 82 36 91 38 123 26 30 -11 42 -10 82 6 112 43 387 130 509 162 162
41 407 78 554 82 l55 2 23 -55z m3343 -2808 c10 -84 10 -100 -3 -107 -19 -13
-35 78 -41 235 l-5 120 19 -75 c10 -41 23 -119 30 -173z m-602 -2231 c0 -2 -8
-10 -17 -17 -16 -13 -17 -12 -4 4 13 16 21 21 21 13z m-4255 -516 c19 -8 19
-9 -2 -9 -12 -1 -25 4 -28 9 -7 12 2 12 30 0z"/>
<path d="M2837 5849 c-10 -6 -27 -9 -37 -6 -11 3 -56 1 -102 -4 -109 -12 -128
-30 -128 -125 0 -40 6 -77 16 -96 11 -22 13 -33 5 -41 -6 -6 -11 -24 -11 -41
0 -23 12 -42 54 -82 30 -29 52 -55 48 -58 -3 -3 -28 -6 -56 -6 -87 -1 -176
-18 -230 -44 -28 -14 -80 -36 -116 -49 -156 -55 -294 -165 -347 -276 -15 -31
-40 -75 -56 -99 -48 -72 -105 -203 -117 -271 -18 -103 -14 -176 20 -328 63
-289 100 -363 255 -519 286 -287 547 -362 818 -234 35 16 70 30 78 30 44 1
257 148 331 229 97 107 178 246 202 351 10 43 25 72 50 100 19 21 39 56 45 77
18 65 13 190 -13 294 -20 80 -37 128 -93 267 -3 7 3 12 16 12 33 0 73 24 101
62 22 29 25 42 23 110 -2 89 -20 139 -58 164 -15 10 -37 42 -50 71 -17 36 -34
59 -56 71 -44 24 -316 265 -415 368 -75 77 -84 84 -120 84 -22 0 -47 -5 -57
-11z m157 -704 c119 -84 158 -131 163 -192 1 -18 20 -63 43 -101 54 -92 70
-178 70 -383 0 -205 -14 -273 -79 -371 -68 -104 -143 -166 -298 -248 -32 -16
-93 -55 -137 -86 -70 -51 -85 -57 -140 -61 -141 -12 -327 84 -491 252 -164
169 -207 318 -171 595 24 181 48 262 107 351 66 101 93 127 203 194 87 52 100
57 163 60 151 7 355 35 396 54 23 11 46 18 50 18 4 -1 59 -38 121 -82z"/>
<path d="M2655 4850 c-3 -5 -37 -10 -74 -10 -78 0 -137 -25 -213 -90 -67 -58
-90 -112 -94 -223 -2 -51 -6 -108 -9 -127 -15 -97 50 -302 125 -392 34 -41
120 -88 162 -88 38 0 97 25 104 45 3 8 34 28 69 45 74 35 179 140 216 216 31
64 38 189 15 287 -32 139 -127 291 -207 332 -32 17 -85 20 -94 5z"/>
<path d="M5608 5559 c-25 -17 -129 -68 -230 -115 -100 -47 -201 -94 -223 -104
-22 -10 -57 -21 -77 -25 -29 -4 -48 -17 -80 -55 -25 -29 -51 -50 -63 -50 -35
0 -61 -27 -95 -97 -43 -90 -46 -118 -21 -175 15 -35 30 -53 55 -64 l34 -17
-62 -76 c-111 -137 -188 -283 -205 -389 -9 -56 -8 -70 11 -115 15 -39 21 -79
23 -157 3 -112 26 -215 72 -324 50 -122 207 -327 276 -362 16 -9 41 -29 54
-44 36 -44 144 -107 230 -136 70 -24 89 -26 183 -21 127 6 241 37 387 107 129
61 179 95 279 189 44 42 100 91 124 110 63 51 130 195 141 305 4 45 13 110 19
146 12 71 2 182 -25 281 -9 30 -19 82 -24 116 -19 134 -132 298 -271 393 -30
21 -68 52 -85 70 -33 35 -105 74 -202 110 -66 24 -72 34 -23 45 16 3 47 20 70
36 36 26 41 35 39 63 -2 22 5 42 24 68 33 42 47 87 47 144 0 56 -22 73 -153
115 -32 10 -70 28 -84 39 -38 29 -89 26 -145 -11z m-36 -605 c37 -31 94 -60
213 -109 50 -20 108 -45 130 -55 22 -10 52 -21 66 -24 27 -6 126 -104 180
-179 16 -22 43 -83 60 -136 30 -92 31 -101 26 -216 -8 -160 -44 -332 -92 -432
-54 -112 -147 -202 -280 -270 -137 -70 -249 -104 -362 -110 -79 -5 -101 -2
-159 18 -58 21 -72 31 -108 78 -73 95 -81 105 -145 171 -207 216 -248 374
-167 650 20 69 57 168 82 221 38 80 56 105 110 153 35 31 67 69 70 83 15 59
78 92 343 182 2 0 17 -10 33 -25z"/>
<path d="M5510 4559 c-143 -65 -269 -225 -313 -399 -17 -66 -13 -122 13 -196
27 -79 66 -141 120 -194 26 -25 51 -55 54 -68 13 -40 73 -72 136 -72 76 0 142
34 217 113 67 70 139 200 149 268 3 24 15 70 25 102 27 80 27 163 0 218 -52
107 -112 165 -206 195 -27 10 -61 25 -74 35 -30 24 -65 24 -121 -2z"/>
<path d="M4199 5466 c-94 -25 -182 -96 -266 -213 -57 -80 -83 -148 -83 -216 0
-74 15 -117 56 -165 43 -50 80 -71 206 -113 76 -25 109 -31 183 -32 194 -1
370 85 430 208 28 59 32 161 8 217 -45 99 -114 173 -203 213 -19 9 -54 31 -78
50 -45 36 -125 65 -176 64 -17 0 -52 -6 -77 -13z"/>
<path d="M3542 3670 c-36 -34 -29 -79 23 -148 54 -71 95 -104 178 -142 96 -43
190 -60 329 -60 137 0 232 17 315 55 105 48 153 103 153 177 0 56 -32 101 -84
118 -43 14 -80 5 -132 -32 -54 -38 -120 -57 -224 -64 -114 -7 -217 12 -363 70
-132 51 -163 55 -195 26z"/>
<path d="M930 3428 c-56 -19 -136 -106 -154 -168 -34 -115 -13 -216 59 -281
21 -19 50 -47 64 -64 83 -94 143 -132 247 -158 146 -37 254 -29 346 26 75 45
109 98 115 180 13 153 -92 264 -385 409 -107 53 -131 61 -190 64 -37 2 -83 -2
-102 -8z"/>
<path d="M4868 3135 c-104 -28 -156 -64 -239 -166 -63 -77 -74 -106 -73 -194
0 -66 5 -89 27 -131 67 -131 245 -214 456 -214 157 0 257 35 340 118 89 90
122 216 87 337 -21 70 -99 155 -161 175 -22 7 -58 23 -80 35 -92 53 -248 70
-357 40z"/>
<path d="M7125 2481 c-27 -10 -71 -21 -97 -25 -42 -6 -249 -76 -498 -167 -47
-18 -127 -56 -178 -86 -135 -80 -285 -149 -440 -204 -76 -26 -127 -48 -115
-48 44 -2 501 89 601 119 187 56 385 131 512 196 115 58 131 70 203 149 43 47
75 85 70 84 -4 0 -30 -8 -58 -18z"/>
<path d="M2732 2085 c8 -8 318 -52 597 -84 322 -38 571 -56 1060 -77 l386 -16
215 27 c118 14 267 30 330 35 80 6 138 16 190 34 l75 26 -120 -5 c-66 -2 -228
-9 -360 -15 -979 -42 -1399 -30 -2025 61 -121 17 -361 27 -348 14z"/>
</g>
</svg>
